<svg width="126" height="64" viewBox="0 0 126 64" fill="none" xmlns="http://www.w3.org/2000/svg">
<g clip-path="url(#clip0_187_345)">
<path d="M123.525 28.328C121.873 25.1829 119.515 22.6466 116.446 20.7246C113.378 18.8026 109.698 17.8388 105.414 17.8388C101.13 17.8388 97.3504 18.8139 94.08 20.7697C90.8096 22.7255 88.2896 25.4365 86.5256 28.9029C86.3072 29.3312 86.1448 29.7934 85.9544 30.2387V0H77.2688V25.6169C75.8184 23.1708 73.808 21.2601 71.232 19.8904C68.656 18.5208 65.5984 17.8332 62.0704 17.8332C57.96 17.8332 54.2976 18.8252 51.0832 20.8035C47.8688 22.7875 45.3936 25.5098 43.6576 28.9761C43.4056 29.4778 43.2152 30.0132 42.9968 30.5374C42.7896 30.047 42.6048 29.5398 42.364 29.0663C40.5832 25.6056 38.1024 22.8608 34.9216 20.8542C31.7352 18.8421 28.056 17.8388 23.8896 17.8388C20.2384 17.8388 17.1584 18.611 14.6384 20.1553C12.1184 21.6997 10.136 23.5822 8.6856 25.7973V0H0V62.9516H7.8176L8.6856 56.2163C9.6712 57.7324 10.8864 59.0739 12.3312 60.2406C13.776 61.4073 15.4728 62.326 17.4104 62.9967C19.348 63.6675 21.5096 64 23.884 64C28.056 64 31.7296 63.008 34.916 61.0297C38.1024 59.0457 40.5776 56.3065 42.3416 52.812C42.5992 52.3047 42.7952 51.7693 43.0136 51.2451C43.2208 51.7411 43.4 52.2483 43.6352 52.7218C45.3712 56.2163 47.8352 58.9724 51.0216 60.9846C54.208 62.9967 57.8536 64 61.964 64C64.568 64 66.8416 63.6224 68.7848 62.8615C70.7224 62.1062 72.4024 61.1311 73.8248 59.9306C75.2416 58.7357 76.4176 57.4394 77.3416 56.0416L78.1256 62.9516H85.9432V51.5889C86.1616 52.0849 86.352 52.5978 86.604 53.0712C88.4296 56.5094 90.9496 59.1922 94.1584 61.1142C97.3728 63.0362 101.063 64 105.235 64C108.713 64 111.748 63.3913 114.358 62.1626C116.962 60.9395 119.162 59.2655 120.96 57.135C122.752 55.0101 124.029 52.6034 124.779 49.9206H116.094C115.282 52.0173 113.966 53.68 112.14 54.903C110.314 56.1261 108.013 56.7405 105.235 56.7405C102.861 56.7405 100.705 56.1599 98.7616 54.9932C96.8184 53.8265 95.2728 52.1356 94.1136 49.9206C93.1056 47.993 92.5624 45.6483 92.4336 42.9259H125.821C125.938 42.1707 125.994 41.438 125.994 40.7391V38.8171C126 34.9731 125.177 31.473 123.525 28.328ZM34.4008 49.0469C33.2416 51.3184 31.6232 53.1107 29.5344 54.424C27.4512 55.7372 25.1048 56.391 22.5008 56.391C19.7232 56.391 17.304 55.7372 15.2488 54.424C13.1936 53.1107 11.5976 51.3184 10.472 49.0469C9.3408 46.7755 8.7808 44.0645 8.7808 40.9138C8.7808 37.8815 9.3464 35.2042 10.472 32.8708C11.6032 30.5374 13.1936 28.7169 15.2488 27.4036C17.304 26.0904 19.7232 25.4365 22.5008 25.4365C25.1048 25.4365 27.4512 26.0791 29.5344 27.3585C31.6176 28.638 33.2416 30.4472 34.4008 32.7806C35.56 35.114 36.1368 37.8251 36.1368 40.9138C36.1368 44.0645 35.5544 46.7755 34.4008 49.0469ZM75.4768 49.0075C74.3456 51.3127 72.7552 53.1163 70.7 54.4296C68.6448 55.7428 66.2536 56.3966 63.532 56.3966C60.8664 56.3966 58.492 55.7428 56.4088 54.4296C54.3256 53.1163 52.7184 51.3127 51.5872 49.0075C50.456 46.7079 49.896 43.9799 49.896 40.8349C49.896 37.8026 50.4616 35.1253 51.5872 32.7919C52.7184 30.4641 54.3256 28.6549 56.4088 27.3698C58.492 26.0904 60.8664 25.4478 63.532 25.4478C66.2536 25.4478 68.6448 26.0904 70.7 27.3698C72.7552 28.6492 74.3456 30.4585 75.4768 32.7919C76.608 35.1253 77.168 37.8364 77.168 40.9251C77.1736 44.0081 76.608 46.7022 75.4768 49.0075ZM92.5176 36.8106C92.7472 34.7364 93.2736 32.9384 94.1192 31.4336C95.2784 29.365 96.8408 27.7925 98.812 26.7103C100.778 25.6338 102.95 25.0927 105.325 25.0927C108.685 25.0927 111.49 26.1411 113.753 28.2378C116.01 30.3345 117.225 33.1921 117.404 36.8049H92.5176V36.8106Z" fill="white"/>
</g>
<defs>
<clipPath id="clip0_187_345">
<rect width="126" height="64" fill="white"/>
</clipPath>
</defs>
</svg>
