<svg width="77" height="26" viewBox="0 0 77 26" fill="none" xmlns="http://www.w3.org/2000/svg">
<path d="M6.98819 11.7465C7.42096 10.1316 9.08091 8.47168 10.6958 8.03891L20.7637 5.34082C22.3785 4.90805 23.3368 5.86634 22.9041 7.48122L20.206 17.5491C19.7732 19.164 18.1133 20.8239 16.4984 21.2567L6.4305 23.9548C4.81562 24.3876 3.85733 23.4293 4.2901 21.8144L6.98819 11.7465Z" fill="#CDD0D8"/>
<path d="M2.952 7.71013C3.38477 6.09525 5.04471 4.4353 6.65959 4.00253L16.7275 1.30444C18.3424 0.871672 19.3007 1.82996 18.8679 3.44484L16.1698 13.5127C15.737 15.1276 14.0771 16.7875 12.4622 17.2203L2.3943 19.9184C0.779425 20.3512 -0.178864 19.3929 0.253907 17.778L2.952 7.71013Z" fill="#CDD0D8"/>
<path d="M32.259 16.5389H35.7221V17.8947H30.579V7.65259H32.259V16.5389Z" fill="#CDD0D8"/>
<path d="M36.5671 13.7979C36.5671 12.9824 36.7341 12.2603 37.0681 11.6315C37.412 11.0028 37.8738 10.5164 38.4534 10.1726C39.0429 9.8189 39.6913 9.64206 40.3987 9.64206C41.0373 9.64206 41.5923 9.76978 42.0639 10.0252C42.5453 10.2708 42.9285 10.5803 43.2134 10.9536V9.77469H44.9081V17.8947H43.2134V16.6863C42.9285 17.0694 42.5404 17.3887 42.0492 17.6442C41.558 17.8996 40.998 18.0273 40.3692 18.0273C39.6716 18.0273 39.0331 17.8505 38.4534 17.4968C37.8738 17.1333 37.412 16.6322 37.0681 15.9936C36.7341 15.3452 36.5671 14.6133 36.5671 13.7979ZM43.2134 13.8273C43.2134 13.2673 43.0955 12.781 42.8597 12.3684C42.6338 11.9557 42.3341 11.6414 41.9608 11.4252C41.5874 11.2091 41.1846 11.101 40.7523 11.101C40.3201 11.101 39.9173 11.2091 39.5439 11.4252C39.1706 11.6315 38.866 11.941 38.6302 12.3536C38.4043 12.7564 38.2913 13.2379 38.2913 13.7979C38.2913 14.3579 38.4043 14.8491 38.6302 15.2715C38.866 15.694 39.1706 16.0182 39.5439 16.2442C39.9271 16.4603 40.3299 16.5684 40.7523 16.5684C41.1846 16.5684 41.5874 16.4603 41.9608 16.2442C42.3341 16.028 42.6338 15.7136 42.8597 15.301C43.0955 14.8786 43.2134 14.3873 43.2134 13.8273Z" fill="#CDD0D8"/>
<path d="M54.4242 9.77469L49.4432 21.7115H47.7042L49.3547 17.7621L46.1569 9.77469H48.0284L50.3126 15.9642L52.6853 9.77469H54.4242Z" fill="#CDD0D8"/>
<path d="M63.1342 13.6357C63.1342 13.9403 63.1145 14.2154 63.0752 14.461H56.871C56.9201 15.1094 57.1608 15.6301 57.5931 16.0231C58.0254 16.4161 58.5559 16.6126 59.1847 16.6126C60.0885 16.6126 60.7271 16.2343 61.1005 15.4779H62.9131C62.6675 16.2245 62.2205 16.8386 61.572 17.32C60.9335 17.7915 60.1377 18.0273 59.1847 18.0273C58.4085 18.0273 57.711 17.8554 57.0921 17.5115C56.4829 17.1579 56.0015 16.6666 55.6478 16.0379C55.304 15.3993 55.1321 14.6624 55.1321 13.8273C55.1321 12.9922 55.2991 12.2603 55.6331 11.6315C55.977 10.9929 56.4535 10.5017 57.0626 10.1579C57.6815 9.81399 58.3889 9.64206 59.1847 9.64206C59.951 9.64206 60.6338 9.80908 61.2331 10.1431C61.8324 10.4771 62.2991 10.9487 62.6331 11.5579C62.9671 12.1571 63.1342 12.8498 63.1342 13.6357ZM61.3805 13.1052C61.3706 12.4863 61.1496 11.9901 60.7173 11.6168C60.285 11.2435 59.7496 11.0568 59.111 11.0568C58.5313 11.0568 58.0352 11.2435 57.6226 11.6168C57.2099 11.9803 56.9643 12.4764 56.8857 13.1052H61.3805Z" fill="#CDD0D8"/>
<path d="M66.4674 10.9536C66.7131 10.541 67.0373 10.2217 67.4401 9.99575C67.8527 9.75996 68.339 9.64206 68.899 9.64206V11.381H68.4717C67.8134 11.381 67.3124 11.548 66.9685 11.8821C66.6345 12.2161 66.4674 12.7957 66.4674 13.621V17.8947H64.7874V9.77469H66.4674V10.9536Z" fill="#CDD0D8"/>
<path d="M73.3906 18.0273C72.7521 18.0273 72.1773 17.9143 71.6664 17.6884C71.1654 17.4526 70.7675 17.1382 70.4728 16.7452C70.178 16.3424 70.0208 15.8954 70.0012 15.4042H71.7401C71.7696 15.748 71.9317 16.0379 72.2264 16.2736C72.531 16.4996 72.9092 16.6126 73.3612 16.6126C73.8328 16.6126 74.1963 16.5242 74.4517 16.3473C74.717 16.1607 74.8496 15.9249 74.8496 15.64C74.8496 15.3354 74.7022 15.1094 74.4075 14.9621C74.1226 14.8147 73.6657 14.6526 73.037 14.4757C72.4278 14.3087 71.9317 14.1466 71.5485 13.9894C71.1654 13.8322 70.8314 13.5915 70.5464 13.2673C70.2714 12.9431 70.1338 12.5157 70.1338 11.9852C70.1338 11.5529 70.2615 11.16 70.517 10.8063C70.7724 10.4428 71.1359 10.1579 71.6075 9.95154C72.0889 9.74522 72.6391 9.64206 73.258 9.64206C74.1815 9.64206 74.9233 9.87785 75.4833 10.3494C76.0531 10.8112 76.3577 11.4449 76.397 12.2505H74.717C74.6875 11.887 74.5401 11.5971 74.2749 11.381C74.0096 11.1649 73.651 11.0568 73.1991 11.0568C72.757 11.0568 72.418 11.1403 72.1822 11.3073C71.9464 11.4743 71.8285 11.6954 71.8285 11.9705C71.8285 12.1866 71.9071 12.3684 72.0643 12.5157C72.2215 12.6631 72.4131 12.781 72.6391 12.8694C72.865 12.948 73.1991 13.0512 73.6412 13.1789C74.2307 13.3361 74.7121 13.4982 75.0854 13.6652C75.4685 13.8224 75.7977 14.0582 76.0728 14.3726C76.3478 14.687 76.4903 15.1045 76.5001 15.6252C76.5001 16.087 76.3724 16.4996 76.117 16.8631C75.8615 17.2266 75.498 17.5115 75.0264 17.7179C74.5647 17.9242 74.0194 18.0273 73.3906 18.0273Z" fill="#CDD0D8"/>
</svg>
