<svg width="100" height="26" viewBox="0 0 100 26" fill="none" xmlns="http://www.w3.org/2000/svg">
<path fill-rule="evenodd" clip-rule="evenodd" d="M12.421 19.1931C16.0447 19.1931 18.9824 16.2554 18.9824 12.6317C18.9824 9.00792 16.0447 6.07028 12.421 6.07028C8.79722 6.07028 5.85958 9.00792 5.85958 12.6317C5.85958 16.2554 8.79722 19.1931 12.421 19.1931ZM12.421 24.2106C18.8159 24.2106 23.9999 19.0266 23.9999 12.6317C23.9999 6.23681 18.8159 1.05273 12.421 1.05273C6.02611 1.05273 0.842041 6.23681 0.842041 12.6317C0.842041 19.0266 6.02611 24.2106 12.421 24.2106Z" fill="#CDD0D8"/>
<path d="M12.5535 12.885C13.7593 11.6792 15.7143 11.6792 16.9202 12.885L22.9244 18.8892C24.1302 20.095 24.1302 22.0501 22.9244 23.2559V23.2559C21.7185 24.4617 19.7635 24.4617 18.5577 23.2559L12.5535 17.2517C11.3476 16.0459 11.3476 14.0908 12.5535 12.885V12.885Z" fill="#CDD0D8"/>
<path d="M14.2394 18.9378L18.0527 22.7512C19.8818 21.7311 21.4056 20.2295 22.4528 18.4178L18.6707 14.6357C18.0064 16.7091 16.3389 18.3335 14.2394 18.9378Z" fill="white"/>
<path d="M42.6947 19C42.3607 19.4127 41.953 19.7271 41.4716 19.9432C41 20.1593 40.4793 20.2674 39.9095 20.2674C39.1431 20.2674 38.4505 20.1004 37.8316 19.7663C37.2126 19.4421 36.5052 18.8625 35.7095 18.0274C34.7761 17.9095 33.941 17.6099 33.2042 17.1285C32.4772 16.6471 31.9073 16.0281 31.4947 15.2716C31.0919 14.5053 30.8905 13.6604 30.8905 12.7369C30.8905 11.7249 31.1312 10.8162 31.6126 10.0106C32.1038 9.19512 32.7768 8.55652 33.6316 8.09477C34.4961 7.63302 35.4638 7.40214 36.5347 7.40214C37.6056 7.40214 38.5684 7.63302 39.4231 8.09477C40.2779 8.55652 40.9509 9.19512 41.4421 10.0106C41.9333 10.8162 42.1789 11.7249 42.1789 12.7369C42.1789 13.9355 41.84 14.9867 41.1621 15.8906C40.494 16.7944 39.6049 17.4232 38.4947 17.7769C38.7403 18.0323 38.9761 18.2141 39.2021 18.3221C39.4379 18.44 39.6884 18.499 39.9537 18.499C40.5923 18.499 41.1523 18.2435 41.6337 17.7327L42.6947 19ZM33.3073 12.7369C33.3073 13.3755 33.4449 13.9453 33.72 14.4463C34.0049 14.9474 34.393 15.3404 34.8842 15.6253C35.3754 15.9004 35.9256 16.0379 36.5347 16.0379C37.1438 16.0379 37.694 15.9004 38.1852 15.6253C38.6765 15.3404 39.0596 14.9474 39.3347 14.4463C39.6196 13.9453 39.7621 13.3755 39.7621 12.7369C39.7621 12.0983 39.6196 11.5285 39.3347 11.0274C39.0596 10.5263 38.6765 10.1383 38.1852 9.86319C37.694 9.57828 37.1438 9.43582 36.5347 9.43582C35.9256 9.43582 35.3754 9.57828 34.8842 9.86319C34.393 10.1383 34.0049 10.5263 33.72 11.0274C33.4449 11.5285 33.3073 12.0983 33.3073 12.7369Z" fill="#CDD0D8"/>
<path d="M51.7984 9.96635V17.8948H49.6173V16.9516C49.3128 17.2955 48.9493 17.5607 48.5268 17.7474C48.1044 17.9242 47.6475 18.0127 47.1563 18.0127C46.1149 18.0127 45.2896 17.713 44.6805 17.1137C44.0714 16.5144 43.7668 15.6253 43.7668 14.4463V9.96635H46.0658V14.1074C46.0658 15.3846 46.6012 16.0232 47.6721 16.0232C48.2223 16.0232 48.6644 15.8464 48.9984 15.4927C49.3324 15.1292 49.4995 14.5937 49.4995 13.8863V9.96635H51.7984Z" fill="#CDD0D8"/>
<path d="M57.7009 18.0127C56.8658 18.0127 56.1142 17.8407 55.4461 17.4969C54.7879 17.1432 54.2721 16.6569 53.8987 16.0379C53.5254 15.419 53.3387 14.7165 53.3387 13.9306C53.3387 13.1446 53.5254 12.4421 53.8987 11.8232C54.2721 11.2042 54.7879 10.7228 55.4461 10.379C56.1142 10.0253 56.8658 9.84845 57.7009 9.84845C58.5359 9.84845 59.2826 10.0253 59.9409 10.379C60.5991 10.7228 61.1149 11.2042 61.4882 11.8232C61.8616 12.4421 62.0482 13.1446 62.0482 13.9306C62.0482 14.7165 61.8616 15.419 61.4882 16.0379C61.1149 16.6569 60.5991 17.1432 59.9409 17.4969C59.2826 17.8407 58.5359 18.0127 57.7009 18.0127ZM57.7009 16.1263C58.2903 16.1263 58.7717 15.9299 59.1451 15.5369C59.5282 15.1341 59.7198 14.5986 59.7198 13.9306C59.7198 13.2625 59.5282 12.732 59.1451 12.339C58.7717 11.9362 58.2903 11.7348 57.7009 11.7348C57.1114 11.7348 56.6251 11.9362 56.2419 12.339C55.8587 12.732 55.6672 13.2625 55.6672 13.9306C55.6672 14.5986 55.8587 15.1341 56.2419 15.5369C56.6251 15.9299 57.1114 16.1263 57.7009 16.1263Z" fill="#CDD0D8"/>
<path d="M68.6986 17.5116C68.4726 17.6786 68.1926 17.8063 67.8586 17.8948C67.5344 17.9734 67.1905 18.0127 66.827 18.0127C65.8838 18.0127 65.1519 17.772 64.6312 17.2906C64.1203 16.8092 63.8649 16.1018 63.8649 15.1685V11.9116H62.6417V10.1432H63.8649V8.21267H66.1638V10.1432H68.1386V11.9116H66.1638V15.139C66.1638 15.473 66.2473 15.7334 66.4144 15.92C66.5912 16.0969 66.8368 16.1853 67.1512 16.1853C67.5147 16.1853 67.8242 16.0871 68.0796 15.8906L68.6986 17.5116Z" fill="#CDD0D8"/>
<path d="M69.9891 9.96635H72.288V17.8948H69.9891V9.96635ZM71.1385 8.86109C70.7161 8.86109 70.3722 8.73828 70.107 8.49267C69.8417 8.24705 69.7091 7.94249 69.7091 7.57898C69.7091 7.21547 69.8417 6.91091 70.107 6.6653C70.3722 6.41968 70.7161 6.29688 71.1385 6.29688C71.561 6.29688 71.9049 6.41477 72.1701 6.65056C72.4354 6.88635 72.568 7.18109 72.568 7.53477C72.568 7.91793 72.4354 8.23723 72.1701 8.49267C71.9049 8.73828 71.561 8.86109 71.1385 8.86109Z" fill="#CDD0D8"/>
<path d="M82.188 13.96C82.188 13.9895 82.1732 14.1958 82.1437 14.579H76.1458C76.2539 15.0702 76.5094 15.4583 76.9122 15.7432C77.315 16.0281 77.816 16.1706 78.4153 16.1706C78.828 16.1706 79.1915 16.1116 79.5058 15.9937C79.8301 15.866 80.1297 15.6695 80.4048 15.4042L81.628 16.7306C80.8813 17.5853 79.7908 18.0127 78.3564 18.0127C77.4623 18.0127 76.6715 17.8407 75.9837 17.4969C75.296 17.1432 74.7655 16.6569 74.3922 16.0379C74.0188 15.419 73.8322 14.7165 73.8322 13.9306C73.8322 13.1544 74.0139 12.4569 74.3774 11.8379C74.7508 11.2092 75.2567 10.7228 75.8953 10.379C76.5437 10.0253 77.2658 9.84845 78.0616 9.84845C78.8378 9.84845 79.5402 10.0155 80.169 10.3495C80.7978 10.6835 81.289 11.1649 81.6427 11.7937C82.0062 12.4127 82.188 13.1348 82.188 13.96ZM78.0764 11.5874C77.5557 11.5874 77.1185 11.7348 76.7648 12.0295C76.4111 12.3242 76.195 12.7271 76.1164 13.2379H80.0216C79.943 12.7369 79.7269 12.339 79.3732 12.0442C79.0195 11.7397 78.5873 11.5874 78.0764 11.5874Z" fill="#CDD0D8"/>
<path d="M88.5375 9.84845C89.5199 9.84845 90.3108 10.1432 90.9101 10.7327C91.5192 11.3221 91.8238 12.1965 91.8238 13.3558V17.8948H89.5248V13.7095C89.5248 13.0807 89.3873 12.6141 89.1122 12.3095C88.8371 11.9951 88.4392 11.8379 87.9185 11.8379C87.3389 11.8379 86.8771 12.0197 86.5332 12.3832C86.1894 12.7369 86.0175 13.2674 86.0175 13.9748V17.8948H83.7185V9.96635H85.9143V10.8948C86.2189 10.5607 86.5971 10.3053 87.049 10.1285C87.501 9.94179 87.9971 9.84845 88.5375 9.84845Z" fill="#CDD0D8"/>
<path d="M99.0213 17.5116C98.7954 17.6786 98.5154 17.8063 98.1813 17.8948C97.8571 17.9734 97.5133 18.0127 97.1498 18.0127C96.2066 18.0127 95.4747 17.772 94.954 17.2906C94.4431 16.8092 94.1877 16.1018 94.1877 15.1685V11.9116H92.9645V10.1432H94.1877V8.21267H96.4866V10.1432H98.4613V11.9116H96.4866V15.139C96.4866 15.473 96.5701 15.7334 96.7371 15.92C96.914 16.0969 97.1596 16.1853 97.474 16.1853C97.8375 16.1853 98.147 16.0871 98.4024 15.8906L99.0213 17.5116Z" fill="#CDD0D8"/>
</svg>
