<svg width="38" height="38" viewBox="0 0 38 38" fill="none" xmlns="http://www.w3.org/2000/svg">
<rect x="0.5" y="0.5" width="37" height="37" rx="18.5" stroke="#FDFFFF"/>
<path d="M13.4496 18.1988L11.3812 17.0174C11.2667 16.9545 11.1746 16.8633 11.1047 16.7437C11.0349 16.623 11 16.4931 11 16.354V13.9922C11 13.8538 11.0349 13.7245 11.1047 13.6044C11.1746 13.4842 11.2667 13.393 11.3812 13.3307L13.4496 12.1484C13.5628 12.0823 13.689 12.0493 13.828 12.0493C13.9664 12.0493 14.0944 12.0823 14.212 12.1484L16.2804 13.3307C16.3949 13.3936 16.4871 13.4852 16.5569 13.6053C16.6267 13.7255 16.6616 13.8544 16.6616 13.9922V16.355C16.6616 16.4934 16.6267 16.6227 16.5569 16.7428C16.4871 16.863 16.3949 16.9545 16.2804 17.0174L14.212 18.1988C14.0988 18.2655 13.9727 18.2988 13.8337 18.2988C13.6953 18.2988 13.5672 18.2655 13.4496 18.1988ZM13.8308 17.3222L15.718 16.2484V14.0998L13.8308 13.025L11.9436 14.0998V16.2484L13.8308 17.3222ZM23.5217 18.4819V17.3948L25.3353 18.4602C25.5769 18.5986 25.7643 18.7841 25.8977 19.0169C26.031 19.2497 26.0977 19.4978 26.0977 19.7614V24.0869C26.0977 24.3511 26.031 24.5996 25.8977 24.8324C25.7643 25.0651 25.5769 25.2504 25.3353 25.3881L21.6703 27.5282C21.4281 27.6648 21.173 27.733 20.9051 27.733C20.6371 27.733 20.3839 27.6648 20.1454 27.5282L16.4805 25.3881C16.2389 25.2497 16.0514 25.0642 15.9181 24.8314C15.7847 24.5999 15.718 24.3521 15.718 24.0878V19.7623C15.718 19.4981 15.7847 19.2497 15.9181 19.0169C16.0514 18.7841 16.2389 18.5986 16.4805 18.4602L18.295 17.3958V18.4828L16.6616 19.4349V24.4162L20.9079 26.879L25.1541 24.4162V19.434L23.5217 18.4819ZM21.3797 15.718V20.9079C21.3797 21.0419 21.3344 21.1539 21.2438 21.2438C21.1532 21.3338 21.0409 21.3791 20.9069 21.3797C20.7729 21.3803 20.661 21.335 20.571 21.2438C20.4811 21.1526 20.4361 21.0406 20.4361 20.9079V11.7624C20.4361 11.5467 20.5091 11.3655 20.655 11.2189C20.8009 11.0723 20.9821 10.9994 21.1985 11H26.561C26.8598 11 27.0838 11.1349 27.2329 11.4048C27.3826 11.6747 27.3713 11.9367 27.1989 12.1908L26.7054 12.9306C26.6199 13.0596 26.5771 13.2011 26.5771 13.3552C26.5771 13.5094 26.6199 13.6534 26.7054 13.7874L27.1989 14.5282C27.3707 14.7817 27.382 15.0434 27.2329 15.3132C27.0838 15.5831 26.8598 15.718 26.561 15.718H21.3797Z" fill="#FDFFFF"/>
</svg>
