<svg width="38" height="38" viewBox="0 0 38 38" fill="none" xmlns="http://www.w3.org/2000/svg">
<rect x="0.5" y="0.5" width="37" height="37" rx="18.5" stroke="#FDFFFF"/>
<path d="M27.9412 14.3436C26.7066 14.3421 25.5229 13.851 24.6499 12.978C23.7769 12.105 23.2858 10.9214 23.2843 9.68675C23.2843 9.53854 23.2254 9.39641 23.1206 9.29161C23.0158 9.18681 22.8737 9.12793 22.7255 9.12793H19C18.8518 9.12793 18.7097 9.18681 18.6049 9.29161C18.5001 9.39641 18.4412 9.53854 18.4412 9.68675V21.9809C18.441 22.3475 18.3424 22.7074 18.1557 23.0229C17.969 23.3384 17.7011 23.5981 17.3799 23.7749C17.0587 23.9516 16.6959 24.0389 16.3294 24.0277C15.963 24.0165 15.6062 23.9071 15.2964 23.7111C14.9866 23.515 14.7351 23.2394 14.5681 22.913C14.4011 22.5867 14.3247 22.2214 14.3469 21.8555C14.3691 21.4895 14.4891 21.1362 14.6944 20.8325C14.8996 20.5287 15.1826 20.2855 15.5139 20.1284C15.6094 20.0831 15.6902 20.0116 15.7467 19.9222C15.8033 19.8329 15.8333 19.7293 15.8333 19.6236V15.6475C15.8333 15.5663 15.8155 15.4861 15.7812 15.4124C15.747 15.3388 15.6971 15.2735 15.635 15.2211C15.573 15.1687 15.5002 15.1305 15.4219 15.1091C15.3435 15.0876 15.2615 15.0836 15.1814 15.0971C11.9402 15.6736 9.5 18.6326 9.5 21.9809C9.5 23.8088 10.2261 25.5618 11.5187 26.8544C12.8112 28.1469 14.5642 28.873 16.3922 28.873C18.2201 28.873 19.9731 28.1469 21.2656 26.8544C22.5582 25.5618 23.2843 23.8088 23.2843 21.9809V17.9694C24.7052 18.7711 26.3097 19.1905 27.9412 19.1868C28.0894 19.1868 28.2315 19.1279 28.3363 19.0231C28.4411 18.9183 28.5 18.7761 28.5 18.6279V14.9024C28.5 14.7542 28.4411 14.6121 28.3363 14.5073C28.2315 14.4025 28.0894 14.3436 27.9412 14.3436ZM27.3824 18.0505C25.8211 17.9508 24.3198 17.4119 23.0515 16.496C22.9679 16.436 22.8693 16.4002 22.7667 16.3926C22.664 16.385 22.5613 16.4059 22.4697 16.453C22.3782 16.5002 22.3015 16.5716 22.248 16.6596C22.1945 16.7475 22.1664 16.8485 22.1667 16.9515V21.9809C22.1667 23.5124 21.5583 24.9811 20.4754 26.0641C19.3924 27.147 17.9237 27.7554 16.3922 27.7554C14.8607 27.7554 13.3919 27.147 12.309 26.0641C11.226 24.9811 10.6176 23.5124 10.6176 21.9809C10.6176 19.3991 12.3379 17.093 14.7157 16.3572V19.2939C14.248 19.5857 13.8647 19.9945 13.6035 20.48C13.3423 20.9654 13.2124 21.5106 13.2265 22.0617C13.2407 22.6128 13.3985 23.1506 13.6842 23.622C13.97 24.0933 14.3738 24.482 14.8559 24.7494C15.3379 25.0168 15.8814 25.1538 16.4326 25.1468C16.9838 25.1397 17.5236 24.9889 17.9986 24.7093C18.4737 24.4296 18.8675 24.0308 19.1411 23.5523C19.4147 23.0738 19.5587 22.5321 19.5588 21.9809V10.2456H22.1937C22.3247 11.5772 22.9135 12.8221 23.8596 13.7683C24.8058 14.7144 26.0507 15.3032 27.3824 15.4343V18.0505Z" fill="#FDFFFF"/>
</svg>
