<svg width="38" height="38" viewBox="0 0 38 38" fill="none" xmlns="http://www.w3.org/2000/svg">
<rect x="0.5" y="0.5" width="37" height="37" rx="18.5" stroke="#FDFFFF"/>
<path d="M21.6175 17.8516L18.1788 15.8716C17.9768 15.7553 17.7479 15.6942 17.515 15.6944C17.282 15.6946 17.0532 15.756 16.8514 15.8725C16.6497 15.9891 16.4822 16.1566 16.3656 16.3583C16.2491 16.5601 16.1877 16.7889 16.1875 17.0219V20.98C16.1847 21.4544 16.4378 21.8931 16.8494 22.1275C17.0512 22.2454 17.2806 22.3077 17.5143 22.308C17.748 22.3083 17.9776 22.2467 18.1797 22.1294L21.6175 20.1494C21.8195 20.0333 21.9872 19.866 22.1039 19.6643C22.2205 19.4627 22.282 19.2339 22.282 19.0009C22.282 18.768 22.2205 18.5392 22.1039 18.3375C21.9872 18.1359 21.8195 17.9686 21.6175 17.8525M21.1488 19.3356L17.7119 21.3166C17.6523 21.3515 17.5845 21.3699 17.5155 21.3699C17.4464 21.3699 17.3786 21.3515 17.3191 21.3166C17.2593 21.2828 17.2098 21.2335 17.1756 21.1739C17.1415 21.1144 17.124 21.0468 17.125 20.9781V17.0219C17.1243 16.9536 17.142 16.8863 17.1761 16.8271C17.2102 16.7679 17.2596 16.719 17.3191 16.6853C17.3781 16.6494 17.4459 16.6304 17.515 16.6304C17.5841 16.6304 17.6519 16.6494 17.7109 16.6853L21.1488 18.6663C21.208 18.6997 21.2574 18.7484 21.2917 18.8072C21.326 18.866 21.3441 18.9328 21.3441 19.0009C21.3441 19.069 21.326 19.1359 21.2917 19.1947C21.2574 19.2535 21.208 19.3021 21.1488 19.3356ZM25.5625 11.5H12.4375C11.6918 11.5007 10.9769 11.7973 10.4496 12.3246C9.9223 12.8519 9.62574 13.5668 9.625 14.3125V23.6875C9.62574 24.4332 9.9223 25.1481 10.4496 25.6754C10.9769 26.2027 11.6918 26.4993 12.4375 26.5H25.5625C26.3082 26.4993 27.0231 26.2027 27.5504 25.6754C28.0777 25.1481 28.3743 24.4332 28.375 23.6875V14.3125C28.3743 13.5668 28.0777 12.8519 27.5504 12.3246C27.0231 11.7973 26.3082 11.5007 25.5625 11.5ZM27.4375 23.6875C27.4368 24.1846 27.239 24.661 26.8875 25.0125C26.536 25.364 26.0596 25.5618 25.5625 25.5625H12.4375C11.9404 25.5618 11.464 25.364 11.1125 25.0125C10.761 24.661 10.5632 24.1846 10.5625 23.6875V14.3125C10.5632 13.8154 10.761 13.339 11.1125 12.9875C11.464 12.636 11.9404 12.4382 12.4375 12.4375H25.5625C26.0596 12.4382 26.536 12.636 26.8875 12.9875C27.239 13.339 27.4368 13.8154 27.4375 14.3125V23.6875Z" fill="#FDFFFF"/>
</svg>
