<svg width="38" height="38" viewBox="0 0 38 38" fill="none" xmlns="http://www.w3.org/2000/svg">
<rect x="0.5" y="0.5" width="37" height="37" rx="18.5" stroke="#FDFFFF"/>
<path d="M28.5 25.5516C28.5 25.6385 28.4655 25.7218 28.4041 25.7833C28.3426 25.8447 28.2593 25.8792 28.1724 25.8792H9.82759C9.7407 25.8792 9.65738 25.8447 9.59595 25.7833C9.53451 25.7218 9.5 25.6385 9.5 25.5516C9.5 25.4648 9.53451 25.3814 9.59595 25.32C9.65738 25.2586 9.7407 25.2241 9.82759 25.2241H10.8103V17.0344C10.8103 16.7738 10.9139 16.5238 11.0982 16.3395C11.2825 16.1552 11.5325 16.0516 11.7931 16.0516H15.3966V13.1034C15.3966 12.8427 15.5001 12.5928 15.6844 12.4084C15.8687 12.2241 16.1187 12.1206 16.3793 12.1206H21.6207C21.8813 12.1206 22.1313 12.2241 22.3156 12.4084C22.4999 12.5928 22.6034 12.8427 22.6034 13.1034V19.3275H26.2069C26.4675 19.3275 26.7175 19.431 26.9018 19.6153C27.0861 19.7996 27.1897 20.0496 27.1897 20.3103V25.2241H28.1724C28.2593 25.2241 28.3426 25.2586 28.4041 25.32C28.4655 25.3814 28.5 25.4648 28.5 25.5516ZM22.6034 19.9827V25.2241H26.5345V20.3103C26.5345 20.2234 26.5 20.1401 26.4385 20.0786C26.3771 20.0172 26.2938 19.9827 26.2069 19.9827H22.6034ZM16.0517 25.2241H21.9483V13.1034C21.9483 13.0165 21.9138 12.9332 21.8523 12.8717C21.7909 12.8103 21.7076 12.7758 21.6207 12.7758H16.3793C16.2924 12.7758 16.2091 12.8103 16.1477 12.8717C16.0862 12.9332 16.0517 13.0165 16.0517 13.1034V25.2241ZM11.4655 25.2241H15.3966V16.7068H11.7931C11.7062 16.7068 11.6229 16.7413 11.5615 16.8028C11.5 16.8642 11.4655 16.9475 11.4655 17.0344V25.2241Z" fill="#FDFFFF"/>
</svg>
