<svg width="58" height="58" viewBox="0 0 58 58" fill="none" xmlns="http://www.w3.org/2000/svg">
<circle cx="28.8823" cy="28.8823" r="27.8629" stroke="#FDFFFF" stroke-width="2.03875"/>
<path d="M20.4632 45.553L30.1069 34.476C29.9612 34.6056 29.7183 34.7352 29.3782 34.8647C29.0381 34.9781 28.5604 35.0347 27.945 35.0347C26.3255 35.0347 24.7385 34.6137 23.1838 33.7716C21.6454 32.9295 20.366 31.7068 19.3458 30.1036C18.3417 28.5003 17.8397 26.5732 17.8397 24.3222C17.8397 22.1036 18.3822 20.1359 19.4672 18.4193C20.5685 16.7027 22.0421 15.3586 23.8883 14.387C25.7345 13.3991 27.7749 12.9052 30.0098 12.9052C32.277 12.9052 34.3336 13.3586 36.1798 14.2655C38.026 15.1724 39.4996 16.5003 40.6009 18.2493C41.7183 19.9821 42.277 22.0793 42.277 24.5408C42.277 27.2939 41.8397 29.6015 40.9652 31.4639C40.0907 33.3262 39.1029 34.9133 38.0017 36.225L30.3255 45.553H20.4632ZM30.0583 28.3303C30.8519 28.3303 31.5725 28.136 32.2203 27.7473C32.8681 27.3586 33.3863 26.8404 33.7749 26.1926C34.1636 25.5449 34.3579 24.8242 34.3579 24.0307C34.3579 23.2372 34.1636 22.5165 33.7749 21.8687C33.4025 21.221 32.8843 20.7108 32.2203 20.3384C31.5725 19.9497 30.8519 19.7554 30.0583 19.7554C29.281 19.7554 28.5604 19.9497 27.8964 20.3384C27.2486 20.7108 26.7304 21.221 26.3417 21.8687C25.9693 22.5165 25.783 23.2372 25.783 24.0307C25.783 24.8242 25.9774 25.5449 26.366 26.1926C26.7547 26.8404 27.2729 27.3586 27.9207 27.7473C28.5685 28.136 29.281 28.3303 30.0583 28.3303Z" fill="#FDFFFF"/>
</svg>
