<svg width="38" height="38" viewBox="0 0 38 38" fill="none" xmlns="http://www.w3.org/2000/svg">
<rect x="0.5" y="0.5" width="37" height="37" rx="17.5" stroke="#FDFFFF"/>
<path d="M19.003 28C17.759 28 16.589 27.764 15.493 27.292C14.3977 26.8193 13.4447 26.178 12.634 25.368C11.8233 24.558 11.1817 23.606 10.709 22.512C10.2363 21.418 10 20.2483 10 19.003C10 17.7577 10.2363 16.5877 10.709 15.493C11.181 14.3977 11.8213 13.4447 12.63 12.634C13.4387 11.8233 14.391 11.1817 15.487 10.709C16.583 10.2363 17.753 10 18.997 10C20.241 10 21.411 10.2363 22.507 10.709C23.6023 11.181 24.5553 11.8217 25.366 12.631C26.1767 13.4403 26.8183 14.3927 27.291 15.488C27.7637 16.5833 28 17.753 28 18.997C28 20.241 27.764 21.411 27.292 22.507C26.82 23.603 26.1787 24.556 25.368 25.366C24.5573 26.176 23.6053 26.8177 22.512 27.291C21.4187 27.7643 20.249 28.0007 19.003 28ZM19 27C21.2333 27 23.125 26.225 24.675 24.675C26.225 23.125 27 21.2333 27 19C27 16.7667 26.225 14.875 24.675 13.325C23.125 11.775 21.2333 11 19 11C16.7667 11 14.875 11.775 13.325 13.325C11.775 14.875 11 16.7667 11 19C11 21.2333 11.775 23.125 13.325 24.675C14.875 26.225 16.7667 27 19 27ZM19.005 24C17.617 24 16.436 23.5143 15.462 22.543C14.488 21.5717 14.0007 20.3923 14 19.005C13.9993 17.6177 14.485 16.436 15.457 15.46C16.429 14.484 17.6083 13.9973 18.995 14C20.3817 14.0027 21.563 14.4883 22.539 15.457C23.515 16.4257 24.002 17.605 24 18.995C23.998 20.385 23.5123 21.5663 22.543 22.539C21.5737 23.5117 20.3943 23.9987 19.005 24ZM19 23C20.1 23 21.0417 22.6083 21.825 21.825C22.6083 21.0417 23 20.1 23 19C23 17.9 22.6083 16.9583 21.825 16.175C21.0417 15.3917 20.1 15 19 15C17.9 15 16.9583 15.3917 16.175 16.175C15.3917 16.9583 15 17.9 15 19C15 20.1 15.3917 21.0417 16.175 21.825C16.9583 22.6083 17.9 23 19 23ZM19 20C18.732 20 18.4983 19.9003 18.299 19.701C18.0997 19.5017 18 19.268 18 19C18 18.732 18.0997 18.4983 18.299 18.299C18.4983 18.0997 18.732 18 19 18C19.268 18 19.5017 18.0997 19.701 18.299C19.9003 18.4983 20 18.732 20 19C20 19.268 19.9003 19.5017 19.701 19.701C19.5017 19.9003 19.268 20 19 20Z" fill="#FDFFFF"/>
</svg>
