<svg width="38" height="38" viewBox="0 0 38 38" fill="none" xmlns="http://www.w3.org/2000/svg">
<rect x="0.5" y="0.5" width="37" height="37" rx="18.5" stroke="#FDFFFF"/>
<path d="M11 18.1111C11 14.7591 11 13.0827 12.0418 12.0418C13.0827 11 14.7591 11 18.1111 11H19.8889C23.2409 11 24.9173 11 25.9582 12.0418C27 13.0827 27 14.7591 27 18.1111V19.8889C27 23.2409 27 24.9173 25.9582 25.9582C24.9173 27 23.2409 27 19.8889 27H18.1111C14.7591 27 13.0827 27 12.0418 25.9582C11 24.9173 11 23.2409 11 19.8889V18.1111Z" stroke="#FDFFFF" stroke-width="0.888889"/>
<path d="M23.0001 16.3337C23.7365 16.3337 24.3334 15.7367 24.3334 15.0003C24.3334 14.2639 23.7365 13.667 23.0001 13.667C22.2637 13.667 21.6667 14.2639 21.6667 15.0003C21.6667 15.7367 22.2637 16.3337 23.0001 16.3337Z" fill="#FDFFFF"/>
<path d="M19 22.1099C20.7182 22.1099 22.1111 20.717 22.1111 18.9988C22.1111 17.2806 20.7182 15.8877 19 15.8877C17.2818 15.8877 15.8889 17.2806 15.8889 18.9988C15.8889 20.717 17.2818 22.1099 19 22.1099Z" stroke="#FDFFFF" stroke-width="0.888889"/>
</svg>
