<svg width="38" height="38" viewBox="0 0 38 38" fill="none" xmlns="http://www.w3.org/2000/svg">
<rect x="0.5" y="0.5" width="37" height="37" rx="18.5" stroke="#FDFFFF"/>
<path d="M15.9457 24.8235C15.4521 24.8235 15.0404 24.6605 14.7104 24.3344C14.3804 24.0082 14.215 23.6013 14.2143 23.1135V11.71C14.2143 11.2229 14.3796 10.816 14.7104 10.4892C15.0411 10.1624 15.4529 9.9993 15.9457 10H24.2696C24.7625 10 25.1743 10.1631 25.505 10.4892C25.8357 10.8153 26.0007 11.2222 26 11.71V23.1135C26 23.6006 25.835 24.0072 25.505 24.3333C25.175 24.6594 24.7629 24.8228 24.2686 24.8235H15.9457ZM15.9457 23.7647H24.2696C24.4339 23.7647 24.585 23.6969 24.7229 23.5614C24.8607 23.4259 24.9293 23.2766 24.9286 23.1135V11.71C24.9286 11.5476 24.86 11.3984 24.7229 11.2621C24.5857 11.1259 24.4343 11.0581 24.2686 11.0588H15.9457C15.7807 11.0588 15.6293 11.1266 15.4914 11.2621C15.3536 11.3976 15.285 11.5469 15.2857 11.71V23.1135C15.2857 23.2759 15.3543 23.4252 15.4914 23.5614C15.6286 23.6976 15.7796 23.7654 15.9446 23.7647M12.7304 28C12.2375 28 11.8257 27.8369 11.495 27.5108C11.1643 27.1847 10.9993 26.7778 11 26.29V13.8276H12.0714V26.29C12.0714 26.4524 12.14 26.6016 12.2771 26.7379C12.4143 26.8741 12.5654 26.9419 12.7304 26.9412H22.1268V28H12.7304Z" fill="#FDFFFF"/>
</svg>
