<svg width="38" height="38" viewBox="0 0 38 38" fill="none" xmlns="http://www.w3.org/2000/svg">
<rect x="0.5" y="0.5" width="37" height="37" rx="18.5" stroke="#FDFFFF"/>
<path d="M19 14.8333C18.558 14.8333 18.134 14.6577 17.8215 14.3452C17.5089 14.0326 17.3333 13.6087 17.3333 13.1667C17.3333 12.7246 17.5089 12.3007 17.8215 11.9882C18.134 11.6756 18.558 11.5 19 11.5C19.442 11.5 19.866 11.6756 20.1785 11.9882C20.4911 12.3007 20.6667 12.7246 20.6667 13.1667C20.6667 13.6087 20.4911 14.0326 20.1785 14.3452C19.866 14.6577 19.442 14.8333 19 14.8333ZM19 14.8333V18.1667M19 18.1667C19.663 18.1667 20.2989 18.4301 20.7678 18.8989C21.2366 19.3677 21.5 20.0036 21.5 20.6667C21.5 21.3297 21.2366 21.9656 20.7678 22.4344C20.2989 22.9033 19.663 23.1667 19 23.1667C18.337 23.1667 17.7011 22.9033 17.2322 22.4344C16.7634 21.9656 16.5 21.3297 16.5 20.6667C16.5 20.0036 16.7634 19.3677 17.2322 18.8989C17.7011 18.4301 18.337 18.1667 19 18.1667ZM14.5833 23.8333L16.9167 22.1667M23.4167 23.8333L21.0833 22.1667M11.5 24.8333C11.5 25.2754 11.6756 25.6993 11.9882 26.0118C12.3007 26.3244 12.7246 26.5 13.1667 26.5C13.6087 26.5 14.0326 26.3244 14.3452 26.0118C14.6577 25.6993 14.8333 25.2754 14.8333 24.8333C14.8333 24.3913 14.6577 23.9674 14.3452 23.6548C14.0326 23.3423 13.6087 23.1667 13.1667 23.1667C12.7246 23.1667 12.3007 23.3423 11.9882 23.6548C11.6756 23.9674 11.5 24.3913 11.5 24.8333ZM23.1667 24.8333C23.1667 25.2754 23.3423 25.6993 23.6548 26.0118C23.9674 26.3244 24.3913 26.5 24.8333 26.5C25.2754 26.5 25.6993 26.3244 26.0118 26.0118C26.3244 25.6993 26.5 25.2754 26.5 24.8333C26.5 24.3913 26.3244 23.9674 26.0118 23.6548C25.6993 23.3423 25.2754 23.1667 24.8333 23.1667C24.3913 23.1667 23.9674 23.3423 23.6548 23.6548C23.3423 23.9674 23.1667 24.3913 23.1667 24.8333Z" stroke="#FDFFFF" stroke-width="0.833333" stroke-linecap="round" stroke-linejoin="round"/>
</svg>
