<svg width="11" height="21" viewBox="0 0 11 21" fill="none" xmlns="http://www.w3.org/2000/svg">
  <path d="M8.71018 10.006L0.218176 18.733C0.14826 18.8033 0.0929862 18.8868 0.0555516 18.9786C0.018117 19.0704 -0.000734256 19.1688 8.97104e-05 19.2679C0.000913676 19.3671 0.0213957 19.4651 0.0603505 19.5563C0.0993052 19.6475 0.155959 19.7301 0.227034 19.7992C0.298108 19.8684 0.382193 19.9228 0.474421 19.9592C0.566648 19.9957 0.665191 20.0135 0.764341 20.0116C0.863492 20.0097 0.961284 19.9882 1.05206 19.9482C1.14283 19.9083 1.22478 19.8508 1.29317 19.779L10.2932 10.529C10.4294 10.3889 10.5056 10.2013 10.5056 10.006C10.5056 9.81061 10.4294 9.62297 10.2932 9.48295L1.29318 0.232949C1.22479 0.161136 1.14283 0.103601 1.05206 0.0636703C0.961285 0.0237399 0.863494 0.00220787 0.764343 0.000319583C0.665192 -0.0015687 0.56665 0.0162249 0.474422 0.0526725C0.382194 0.08912 0.29811 0.143495 0.227035 0.212651C0.155961 0.281808 0.0993069 0.364375 0.0603521 0.455573C0.0213974 0.546771 0.000915313 0.644788 9.13298e-05 0.743953C-0.000732653 0.843118 0.0181186 0.941463 0.0555532 1.03329C0.0929878 1.12512 0.148262 1.20862 0.218178 1.27895L8.71018 10.006Z" fill="#FDFFFF" />
</svg>