<svg width="48" height="48" viewBox="0 0 48 48" fill="none" xmlns="http://www.w3.org/2000/svg">
  <path d="M48 24C48 37.2548 37.2548 48 24 48C10.7452 48 0 37.2548 0 24C0 10.7452 10.7452 0 24 0C37.2548 0 48 10.7452 48 24ZM7.00861 24C7.00861 33.3841 14.6159 40.9914 24 40.9914C33.3841 40.9914 40.9914 33.3841 40.9914 24C40.9914 14.6159 33.3841 7.00861 24 7.00861C14.6159 7.00861 7.00861 14.6159 7.00861 24Z" fill="#D9D9D9" />
  <path d="M24 44.4957C24 46.4311 25.5771 48.0262 27.4919 47.7446C29.5134 47.4473 31.4935 46.8924 33.383 46.0898C36.3506 44.8293 39.0337 42.9837 41.2723 40.6633C43.5109 38.3429 45.259 35.5953 46.4123 32.5844C47.5655 29.5734 48.1002 26.361 47.9845 23.1389C47.8689 19.9168 47.1051 16.751 45.7389 13.8305C44.3727 10.9101 42.4321 8.29482 40.0329 6.14092C37.6337 3.98703 34.825 2.33865 31.7747 1.29418C29.8325 0.629172 27.8178 0.217662 25.7801 0.066107C23.8501 -0.0774442 22.3914 1.62668 22.5302 3.55707C22.669 5.48746 24.36 6.90253 26.2779 7.16199C27.3729 7.31012 28.4536 7.56509 29.5043 7.92485C31.6639 8.66431 33.6523 9.83132 35.3509 11.3562C37.0495 12.8811 38.4234 14.7326 39.3906 16.8003C40.3578 18.8679 40.8986 21.1092 40.9805 23.3904C41.0624 25.6715 40.6838 27.9459 39.8673 30.0775C39.0508 32.2092 37.8132 34.1544 36.2284 35.7972C34.6435 37.44 32.7439 38.7466 30.6429 39.639C29.6207 40.0732 28.5611 40.405 27.4795 40.6313C25.5852 41.0276 24 42.5603 24 44.4957Z" fill="#F62424" />
</svg>